<?xml version="1.0" encoding="UTF-8"?>
<svg id="Capa_2" data-name="Capa 2" xmlns="http://www.w3.org/2000/svg" viewBox="0 0 37.38 52.99">
  <defs>
    <style>
      .cls-1 {
        fill: #fa2323;
      }
    </style>
  </defs>
  <g id="Capa_1-2" data-name="Capa 1">
    <path class="cls-1" d="M35.88,39.26c.9-.66,1.34-1.66,1.31-3.01-.03-1.38-.54-2.38-1.51-2.94.99-.7,1.46-1.81,1.41-3.27-.05-1.35-.5-2.29-1.41-2.94.43-.49.65-.84.91-1.5.26-.66.36-1.09.4-1.83v-3.6h-2.62c1.22-.96,1.83-1.92,2.32-3.66.59-2.12.51-3.77-.3-5.76.64-2.34.47-4.22-.54-6.32-1.59-3.27-6.64-2.81-7.37-2.58C26.35.39,24.88-.06,22.48,0c-2.32.06-3.72.56-5.74,2.03-.65-.73-5.4-.58-6.9,2.48-1.08,2.21-1.17,4.32-.31,6.68-.85,1.71-1.02,3.23-.55,5.17.45,1.88,1.56,2.98,2.56,3.78l-2.86.02v3.73c.1.78.23,1.23.56,1.9.28.58.49.89.91,1.31-.49.44-.75.77-1.06,1.44-.26.56-.37.93-.45,1.57L0,30.17v18.49s8.65,0,8.65,0c.24,1.14.52,1.78,1.17,2.62,1.01,1.3,1.98,1.79,3.4,1.7h18.97c1.63-.17,2.83-1.61,3.09-3.71.15-1.3-.01-2.21-.61-3.27,1.39-.03,2.48-1.29,2.67-3.07.17-1.59-.36-2.92-1.46-3.66M33.47,34.61c.82-.03,1.51.9,1.46,1.96-.04.92-.54,1.6-1.25,1.7h-5.1v-3.67s4.88,0,4.88,0ZM28.44,32.26v-2.55c0-.32-.04-.51-.17-.79-.14-.31-.29-.42-.36-.48h5.38c.8-.04,1.49.75,1.53,1.79.05,1.08-.63,2.02-1.46,2.03h-4.92ZM34.87,22.28s0,1.98,0,2.05c-.06.71-.21.93-.55,1.31-.31.34-.56.47-.96.48l-7.04.02v-2.4c.16-.47.32-.71.64-1.01.34-.31.59-.43,1.01-.45h6.9ZM34.87,14.96c-.18,2.33-1.26,3.51-2.96,4.62-1.8,1.17-4.39.28-5.82.13v-1.19c1.97-.28,3.31-1.63,4.02-4.03.66-2.22.45-4.14-.64-6.05,3.32-.14,5.64,3.48,5.39,6.53M21.2,16.98c-1.87-.72-3.63-1.85-3.7-4.39-.05-1.98.67-3.51,2.06-4.33,0,0-.02.01-.05.03,0,0-.01,0-.02.01-.03.02-.07.04-.11.06,0,0-.02.01-.03.02-.1.06-.21.12-.29.17-.01,0-.02.01-.03.02-.03.02-.05.03-.06.04-.03.02-.03.02,0,0,.01,0,.04-.02.06-.04,0,0,.02-.01.03-.02.07-.04.16-.09.29-.17.01,0,.02-.01.03-.02.04-.02.08-.04.11-.06,0,0,.01,0,.02-.01.03-.02.05-.03.05-.03.26,1.98.7,3.14,1.74,4.63,1.41,2.02,2.75,2.86,4.85,3.03-1.59,1.46-3.07,1.78-4.94,1.07M23.92,26.15h-1.43c-.16-.06-.24-.13-.37-.27-.15-.18-.22-.33-.28-.59v-4.04c.33-.31.52-.47.87-.71.44-.31.71-.46,1.19-.66l.02,6.27ZM23.04,11.54s.06.08.08.11c.09.12.13.17,0,0-.02-.03-.05-.06-.08-.11-.09-.12-.19-.26-.19-.26.89.1,1.5-.15,2.19-.89.57-.61.83-1.15,1-2.08.93.33,1.48.9,1.92,2.02.51,1.3.5,2.46-.05,3.74-1.05,0-1.67-.14-2.65-.65-1.06-.56-1.63-1.06-2.42-2.14.08.11.14.19.19.26M22.92,9.09c-.62,0-1.12-.45-1.12-1.01s.5-1.01,1.12-1.01,1.12.45,1.12,1.01-.5,1.01-1.12,1.01M32.4,4.34c1.35.81,2.08,1.88,2.51,3.74l-.68.42c-1.11-1.02-1.84-1.47-3.15-1.96-1.62-.6-2.63-.7-4.3-.41.21-.35,2.19-3.83,5.62-1.78M20.34,2.44c2.28-1.07,4.1-.96,6.17.65-.5.35-.78.61-1.19,1.13-.25.32-.39.52-.6.89-.59-.12-1.94-.52-4.25.24-1.81.59-2.83,1.28-4.25,2.85.7-2.92,1.89-4.72,4.11-5.75M11.7,5.7c1.14-1.25,2.06-1.72,3.61-1.66-.74,1.27-1.02,2.26-1.05,3.86-.04,1.7.23,2.79,1.01,4.15-.02,0-.03,0-.05,0-.03,0-.07,0-.12,0-.06,0-.11,0-.16,0-.11,0-.22.01-.31.02-.07,0-.11,0-.13,0,.02,0,.07,0,.13,0,.09,0,.2-.01.31-.02.05,0,.1,0,.16,0,.05,0,.09,0,.12,0,.02,0,.03,0,.05,0-1.78.12-2.97-.59-3.84-2.14-.75-1.33-.7-3.15.27-4.21M10.92,12.53c.88.83,1.49,1.17,2.56,1.42.75.18,1.21.2,1.97.06.56,1.46,1.06,2.23,2.06,3.2,1.16,1.14,2.03,1.58,3.47,1.78-1.11,1.05-4.18,2.03-6.44.6-3.8-2.4-3.63-6.26-3.61-7.06M10.97,22.28h7.06c.39.01.64.15.94.47.34.37.43.6.55,1.31,0,0,0,2.08,0,2.08h-6.9c-.42-.04-.67-.16-1.01-.47-.32-.3-.48-.54-.64-1.01v-2.37ZM19.71,48.29c-.06.94.06,1.57.49,2.35h-6.83c-.75,0-1.24-.26-1.8-.92-.46-.53-.66-.98-.81-1.75v-1.65H2.18s0-14.06,0-14.06h6.52s0,3.47,0,3.47c.05,1.2.26,1.93.83,2.88.81,1.36,1.7,1.96,3.02,2.01h5.52c.62-.08.97-.19,1.56-.46.3-.14.46-.23.74-.41-.52.82-.69,1.53-.66,2.59.04,1.42.48,2.39,1.41,3.14-.88.63-1.32,1.51-1.41,2.81M19.76,32.33v3.93c-.07.67-.25,1.08-.65,1.5-.38.4-.69.53-1.18.52h-5.17c-.59-.02-.98-.26-1.36-.85-.28-.44-.39-.8-.42-1.37v-5.59c-.06-.56.03-.95.3-1.38.26-.41.51-.58.92-.64h12.35c.46-.02.75.11,1.11.48.38.4.55.8.6,1.44v7.92s-2.27,0-2.27,0c-.57.03-.95-.13-1.39-.6-.45-.47-.65-.92-.74-1.65l.02-3.7h-2.12ZM31.75,50.63h-8.28c-.78-.09-1.35-.93-1.34-1.94.01-1.04.66-1.87,1.46-1.88h8.11c.77.16,1.29,1,1.26,2.01-.03.94-.51,1.64-1.21,1.81M33.62,44.46h-9.98c-.86.1-1.63-.84-1.61-1.96.02-1.08.73-1.94,1.57-1.88l5.09-.02h4.89c.85-.02,1.56.93,1.51,2.03-.04,1.03-.67,1.81-1.46,1.83"/>
  </g>
</svg>